<svg xmlns="http://www.w3.org/2000/svg" xmlns:xlink="http://www.w3.org/1999/xlink" width="1366" zoomAndPan="magnify" viewBox="0 0 1024.5 576" height="768" preserveAspectRatio="xMidYMid meet" version="1.0"><defs><g/><clipPath id="aca0251bd0"><path d="M 0 0.140625 L 1024 0.140625 L 1024 575.859375 L 0 575.859375 Z M 0 0.140625 " clip-rule="nonzero"/></clipPath></defs><g clip-path="url(#aca0251bd0)"><path fill="#ffffff" d="M 0 0.140625 L 1024 0.140625 L 1024 575.859375 L 0 575.859375 Z M 0 0.140625 " fill-opacity="1" fill-rule="nonzero"/><path fill="#ffffff" d="M 0 0.140625 L 1024 0.140625 L 1024 575.859375 L 0 575.859375 Z M 0 0.140625 " fill-opacity="1" fill-rule="nonzero"/></g><g fill="#ff8d55" fill-opacity="0.4"><g transform="translate(98.675913, 311.340887)"><g><path d="M 142.335938 -169.699219 L 14.847656 -169.699219 L 14.847656 -138.09375 L 62.789062 -138.09375 L 62.789062 0 L 94.394531 0 L 94.394531 -138.09375 L 142.335938 -138.09375 Z M 142.335938 -169.699219 "/></g></g></g><g fill="#ff8d55" fill-opacity="0.4"><g transform="translate(255.860854, 311.340887)"><g><path d="M 113.273438 -138.304688 L 113.273438 -169.914062 L 14.847656 -169.914062 L 14.847656 0 L 113.273438 0 L 113.273438 -31.605469 L 46.667969 -31.605469 L 46.667969 -69.363281 L 86.335938 -69.363281 L 86.335938 -100.972656 L 46.667969 -100.972656 L 46.667969 -138.304688 Z M 113.273438 -138.304688 "/></g></g></g><g fill="#ff8d55" fill-opacity="0.4"><g transform="translate(383.984589, 311.340887)"><g><path d="M 114.972656 0 L 148.0625 0 L 98.214844 -169.277344 L 98.214844 -169.699219 L 64.910156 -169.699219 L 14.847656 0 L 48.152344 0 L 60.667969 -42.214844 L 102.457031 -42.214844 Z M 70 -73.820312 L 81.667969 -113.273438 L 93.125 -73.820312 Z M 70 -73.820312 "/></g></g></g><g fill="#ff8d55" fill-opacity="0.4"><g transform="translate(546.896895, 311.340887)"><g><path d="M 139.15625 -47.304688 C 130.246094 -36.910156 117.09375 -30.546875 101.609375 -30.546875 C 71.699219 -30.546875 50.484375 -54.941406 50.484375 -84.851562 C 50.484375 -114.761719 71.699219 -139.15625 101.609375 -139.15625 C 117.09375 -139.15625 130.246094 -132.789062 139.15625 -122.398438 L 163.125 -146.15625 C 147.425781 -161.851562 125.578125 -171.609375 101.609375 -171.609375 C 53.667969 -171.609375 14.847656 -132.789062 14.847656 -84.851562 C 14.847656 -36.910156 53.667969 1.910156 101.609375 1.910156 C 125.578125 1.910156 147.425781 -7.847656 163.125 -23.546875 Z M 139.15625 -47.304688 "/></g></g></g><g fill="#ff8d55" fill-opacity="0.4"><g transform="translate(724.87011, 311.340887)"><g><path d="M 115.609375 -168.429688 L 115.609375 -91.003906 L 46.667969 -91.003906 L 46.667969 -168.429688 L 14.847656 -168.429688 L 14.847656 1.484375 L 46.667969 1.484375 L 46.667969 -59.394531 L 115.609375 -59.394531 L 115.609375 1.484375 L 147.214844 1.484375 L 147.214844 -168.429688 Z M 115.609375 -168.429688 "/></g></g></g><g fill="#8c52ff" fill-opacity="1"><g transform="translate(111.053411, 306.589612)"><g><path d="M 142.335938 -169.699219 L 14.847656 -169.699219 L 14.847656 -138.09375 L 62.789062 -138.09375 L 62.789062 0 L 94.394531 0 L 94.394531 -138.09375 L 142.335938 -138.09375 Z M 142.335938 -169.699219 "/></g></g></g><g fill="#8c52ff" fill-opacity="1"><g transform="translate(268.238352, 306.589612)"><g><path d="M 113.273438 -138.304688 L 113.273438 -169.914062 L 14.847656 -169.914062 L 14.847656 0 L 113.273438 0 L 113.273438 -31.605469 L 46.667969 -31.605469 L 46.667969 -69.363281 L 86.335938 -69.363281 L 86.335938 -100.972656 L 46.667969 -100.972656 L 46.667969 -138.304688 Z M 113.273438 -138.304688 "/></g></g></g><g fill="#8c52ff" fill-opacity="1"><g transform="translate(396.362087, 306.589612)"><g><path d="M 114.972656 0 L 148.0625 0 L 98.214844 -169.277344 L 98.214844 -169.699219 L 64.910156 -169.699219 L 14.847656 0 L 48.152344 0 L 60.667969 -42.214844 L 102.457031 -42.214844 Z M 70 -73.820312 L 81.667969 -113.273438 L 93.125 -73.820312 Z M 70 -73.820312 "/></g></g></g><g fill="#8c52ff" fill-opacity="1"><g transform="translate(559.274393, 306.589612)"><g><path d="M 139.15625 -47.304688 C 130.246094 -36.910156 117.09375 -30.546875 101.609375 -30.546875 C 71.699219 -30.546875 50.484375 -54.941406 50.484375 -84.851562 C 50.484375 -114.761719 71.699219 -139.15625 101.609375 -139.15625 C 117.09375 -139.15625 130.246094 -132.789062 139.15625 -122.398438 L 163.125 -146.15625 C 147.425781 -161.851562 125.578125 -171.609375 101.609375 -171.609375 C 53.667969 -171.609375 14.847656 -132.789062 14.847656 -84.851562 C 14.847656 -36.910156 53.667969 1.910156 101.609375 1.910156 C 125.578125 1.910156 147.425781 -7.847656 163.125 -23.546875 Z M 139.15625 -47.304688 "/></g></g></g><g fill="#8c52ff" fill-opacity="1"><g transform="translate(737.247608, 306.589612)"><g><path d="M 115.609375 -168.429688 L 115.609375 -91.003906 L 46.667969 -91.003906 L 46.667969 -168.429688 L 14.847656 -168.429688 L 14.847656 1.484375 L 46.667969 1.484375 L 46.667969 -59.394531 L 115.609375 -59.394531 L 115.609375 1.484375 L 147.214844 1.484375 L 147.214844 -168.429688 Z M 115.609375 -168.429688 "/></g></g></g><g fill="#ffffff" fill-opacity="0.4"><g transform="translate(167.817002, 471.679195)"><g><path d="M 74.304688 -135.558594 C 36.484375 -135.558594 5.859375 -104.933594 5.859375 -67.109375 C 5.859375 -29.289062 36.484375 1.339844 74.304688 1.339844 C 112.128906 1.339844 142.753906 -29.289062 142.753906 -67.109375 C 142.753906 -104.933594 112.128906 -135.558594 74.304688 -135.558594 Z M 74.304688 -109.953125 C 98.070312 -109.953125 114.804688 -90.707031 114.804688 -67.109375 C 114.804688 -43.511719 98.070312 -24.265625 74.304688 -24.265625 C 50.707031 -24.265625 33.972656 -43.511719 33.972656 -67.109375 C 33.972656 -90.707031 50.707031 -109.953125 74.304688 -109.953125 Z M 74.304688 -109.953125 "/></g></g></g><g fill="#ffffff" fill-opacity="0.4"><g transform="translate(316.428915, 471.679195)"><g><path d="M 91.207031 -133.882812 L 91.207031 -43.511719 L 39.160156 -133.882812 L 11.714844 -133.882812 L 11.714844 0 L 36.816406 0 L 36.816406 -83.84375 L 85.015625 0 L 116.3125 0 L 116.3125 -133.882812 Z M 91.207031 -133.882812 "/></g></g></g><g fill="#ffffff" fill-opacity="0.4"><g transform="translate(444.456062, 471.679195)"><g><path d="M 36.652344 -24.9375 L 36.652344 -133.882812 L 11.714844 -133.882812 L 11.714844 0 L 89.199219 0 L 89.199219 -24.9375 Z M 36.652344 -24.9375 "/></g></g></g><g fill="#ffffff" fill-opacity="0.4"><g transform="translate(545.371574, 471.679195)"><g><path d="M 11.714844 -133.882812 L 36.816406 -133.882812 L 36.816406 -0.503906 L 11.714844 -0.503906 Z M 11.714844 -133.882812 "/></g></g></g><g fill="#ffffff" fill-opacity="0.4"><g transform="translate(593.904755, 471.679195)"><g><path d="M 91.207031 -133.882812 L 91.207031 -43.511719 L 39.160156 -133.882812 L 11.714844 -133.882812 L 11.714844 0 L 36.816406 0 L 36.816406 -83.84375 L 85.015625 0 L 116.3125 0 L 116.3125 -133.882812 Z M 91.207031 -133.882812 "/></g></g></g><g fill="#ffffff" fill-opacity="0.4"><g transform="translate(721.93191, 471.679195)"><g><path d="M 89.367188 -109.117188 L 89.367188 -134.050781 L 11.714844 -134.050781 L 11.714844 0 L 89.367188 0 L 89.367188 -24.9375 L 36.816406 -24.9375 L 36.816406 -54.726562 L 68.113281 -54.726562 L 68.113281 -79.660156 L 36.816406 -79.660156 L 36.816406 -109.117188 Z M 89.367188 -109.117188 "/></g></g></g><g fill="#00abe4" fill-opacity="1"><g transform="translate(177.582399, 467.930614)"><g><path d="M 74.304688 -135.558594 C 36.484375 -135.558594 5.859375 -104.933594 5.859375 -67.109375 C 5.859375 -29.289062 36.484375 1.339844 74.304688 1.339844 C 112.128906 1.339844 142.753906 -29.289062 142.753906 -67.109375 C 142.753906 -104.933594 112.128906 -135.558594 74.304688 -135.558594 Z M 74.304688 -109.953125 C 98.070312 -109.953125 114.804688 -90.707031 114.804688 -67.109375 C 114.804688 -43.511719 98.070312 -24.265625 74.304688 -24.265625 C 50.707031 -24.265625 33.972656 -43.511719 33.972656 -67.109375 C 33.972656 -90.707031 50.707031 -109.953125 74.304688 -109.953125 Z M 74.304688 -109.953125 "/></g></g></g><g fill="#00abe4" fill-opacity="1"><g transform="translate(326.194311, 467.930614)"><g><path d="M 91.207031 -133.882812 L 91.207031 -43.511719 L 39.160156 -133.882812 L 11.714844 -133.882812 L 11.714844 0 L 36.816406 0 L 36.816406 -83.84375 L 85.015625 0 L 116.3125 0 L 116.3125 -133.882812 Z M 91.207031 -133.882812 "/></g></g></g><g fill="#00abe4" fill-opacity="1"><g transform="translate(454.221458, 467.930614)"><g><path d="M 36.652344 -24.9375 L 36.652344 -133.882812 L 11.714844 -133.882812 L 11.714844 0 L 89.199219 0 L 89.199219 -24.9375 Z M 36.652344 -24.9375 "/></g></g></g><g fill="#00abe4" fill-opacity="1"><g transform="translate(555.13697, 467.930614)"><g><path d="M 11.714844 -133.882812 L 36.816406 -133.882812 L 36.816406 -0.503906 L 11.714844 -0.503906 Z M 11.714844 -133.882812 "/></g></g></g><g fill="#00abe4" fill-opacity="1"><g transform="translate(603.670151, 467.930614)"><g><path d="M 91.207031 -133.882812 L 91.207031 -43.511719 L 39.160156 -133.882812 L 11.714844 -133.882812 L 11.714844 0 L 36.816406 0 L 36.816406 -83.84375 L 85.015625 0 L 116.3125 0 L 116.3125 -133.882812 Z M 91.207031 -133.882812 "/></g></g></g><g fill="#00abe4" fill-opacity="1"><g transform="translate(731.697306, 467.930614)"><g><path d="M 89.367188 -109.117188 L 89.367188 -134.050781 L 11.714844 -134.050781 L 11.714844 0 L 89.367188 0 L 89.367188 -24.9375 L 36.816406 -24.9375 L 36.816406 -54.726562 L 68.113281 -54.726562 L 68.113281 -79.660156 L 36.816406 -79.660156 L 36.816406 -109.117188 Z M 89.367188 -109.117188 "/></g></g></g></svg>